<svg
  role="img"
  viewBox="0 0 50 29"
  version="1.1"
  xmlns="http://www.w3.org/2000/svg"
  xmlns:xlink="http://www.w3.org/1999/xlink"
  xml:space="preserve"
  width="100%"
  height="100%"
  fill="currentColor"
>
  <g transform="matrix(1,0,0,1,-88,-160)">
  <g transform="matrix(0.148814,0,0,0.148814,74.9084,136.194)">
    <path
        d="M95.029,200.971L239.029,344.971C248.402,354.343 263.598,354.343 272.971,344.971L416.971,200.971C426.337,191.604 426.337,176.396 416.971,167.029C407.604,157.663 392.396,157.663 383.029,167.029C383.029,167.029 294.081,255.978 256,294.059C256,294.059 128.971,167.029 128.971,167.029C119.604,157.663 104.396,157.663 95.029,167.029C85.663,176.396 85.663,191.604 95.029,200.971Z"
      />
    </g>
  </g>
</svg>
