<svg
  role="img"
  viewBox="0 0 416 416"
  version="1.1"
  xmlns="http://www.w3.org/2000/svg"
  xmlns:xlink="http://www.w3.org/1999/xlink"
  xml:space="preserve"
  width="100%"
  height="100%"
  fill="currentColor"
>
  <g transform="matrix(1,0,0,1,-48,-48)">
    <path
      d="M464,256C464,141.167 370.833,48 256,48C141.167,48 48,141.167 48,256C48,370.833 141.167,464 256,464C370.833,464 464,370.833 464,256ZM432,256C432,353.167 353.167,432 256,432C158.833,432 80,353.167 80,256C80,158.833 158.833,80 256,80C353.167,80 432,158.833 432,256ZM339.749,165.709L217.184,311.62C217.184,311.62 171.893,261.297 171.893,261.297C165.985,254.733 155.86,254.2 149.297,260.107C142.733,266.015 142.2,276.14 148.107,282.703L205.707,346.703C208.805,350.146 213.243,352.077 217.873,351.998C222.504,351.919 226.873,349.837 229.851,346.291L364.251,186.291C369.931,179.529 369.053,169.429 362.291,163.749C355.529,158.069 345.429,158.947 339.749,165.709Z"
    />
  </g>
</svg>
