<svg
  role="img"
  viewBox="0 0 256 256"
  version="1.1"
  xmlns="http://www.w3.org/2000/svg"
  xmlns:xlink="http://www.w3.org/1999/xlink"
  xml:space="preserve"
  width="100%"
  height="100%"
  fill="currentColor"
>
  <g transform="matrix(1,0,0,1,-128,-128)">
    <path
      d="M256,233.373L155.314,132.686C149.07,126.442 138.93,126.442 132.686,132.686C126.442,138.93 126.442,149.07 132.686,155.314L233.373,256L132.686,356.686C126.442,362.93 126.442,373.07 132.686,379.314C138.93,385.558 149.07,385.558 155.314,379.314L256,278.627L356.686,379.314C362.93,385.558 373.07,385.558 379.314,379.314C385.558,373.07 385.558,362.93 379.314,356.686L278.627,256L379.314,155.314C385.558,149.07 385.558,138.93 379.314,132.686C373.07,126.442 362.93,126.442 356.686,132.686L256,233.373Z"
    />
  </g>
</svg>
