<svg
  role="img"
  viewBox="0 0 20 17"
  version="1.1"
  xmlns="http://www.w3.org/2000/svg"
  xmlns:xlink="http://www.w3.org/1999/xlink"
  xml:space="preserve"
  width="100%"
  height="100%"
  fill="currentColor"
>
  <g transform="matrix(1,0,0,1,-25,-146)">
    <g transform="matrix(1,0,0,1,2.25807,-1.6644)">
      <g transform="matrix(1,0,0,1,-2.25807,-26.5256)">
        <path
          d="M45,177.556C45,176.176 43.88,175.056 42.5,175.056L27.5,175.056C26.12,175.056 25,176.176 25,177.556L25,188.27C25,189.65 26.12,190.77 27.5,190.77C27.5,190.77 42.5,190.77 42.5,190.77C43.88,190.77 45,189.65 45,188.27L45,177.556ZM43.571,177.556L43.571,188.27C43.571,188.862 43.091,189.342 42.5,189.342L27.5,189.342C26.909,189.342 26.429,188.862 26.429,188.27C26.429,188.27 26.429,177.556 26.429,177.556C26.429,176.965 26.909,176.484 27.5,176.484C27.5,176.484 42.5,176.484 42.5,176.484C43.091,176.484 43.571,176.965 43.571,177.556ZM28.133,179.191L34.561,184.191C34.819,184.392 35.181,184.392 35.439,184.191L41.867,179.191C42.178,178.949 42.234,178.5 41.992,178.189C41.75,177.878 41.301,177.821 40.99,178.064C40.99,178.064 36.449,181.596 35,182.722C35,182.722 29.01,178.064 29.01,178.064C28.699,177.821 28.25,177.878 28.008,178.189C27.766,178.5 27.822,178.949 28.133,179.191Z"
        />
      </g>
    </g>
  </g>
</svg>
