<svg
  role="img"
  viewBox="0 0 400 400"
  version="1.1"
  xmlns="http://www.w3.org/2000/svg"
  xmlns:xlink="http://www.w3.org/1999/xlink"
  xml:space="preserve"
  width="100%"
  height="100%"
  fill="currentColor"
>
  <g transform="matrix(1,0,0,1,-48,-48)">
    <path
      d="M248,48C137.554,48 48,137.554 48,248C48,358.446 137.554,448 248,448C358.446,448 448,358.446 448,248C448,137.554 358.446,48 248,48ZM248,80C340.774,80 416,155.226 416,248C416,340.774 340.774,416 248,416C155.226,416 80,340.774 80,248C80,155.226 155.226,80 248,80ZM236,324L208,324C199.169,324 192,331.169 192,340C192,348.831 199.169,356 208,356L296,356C304.831,356 312,348.831 312,340C312,331.169 304.831,324 296,324L268,324L268,220C268,211.163 260.837,204 252,204L220,204C211.169,204 204,211.169 204,220C204,228.831 211.169,236 220,236L236,236L236,324ZM248,130C233.737,130 222,141.737 222,156C222,170.263 233.737,182 248,182C262.263,182 274,170.263 274,156C274,141.737 262.263,130 248,130Z"
    />
  </g>
</svg>
