<svg
  role="img"
  viewBox="0 0 438 414"
  version="1.1"
  xmlns="http://www.w3.org/2000/svg"
  xmlns:xlink="http://www.w3.org/1999/xlink"
  xml:space="preserve"
  width="100%"
  height="100%"
  fill="currentColor"
>
  <g transform="matrix(1,0,0,1,-37,-49)">
    <path
      d="M85.567,462.25L426.433,462.25C452.762,462.245 474.424,440.579 474.424,414.25C474.424,406.308 472.453,398.488 468.688,391.495L298.266,74.991C280.133,41.334 231.867,41.334 213.734,74.991L43.312,391.495C39.547,398.488 37.576,406.308 37.576,414.25C37.576,440.579 59.238,462.245 85.567,462.25ZM85.573,430.25C76.797,430.248 69.576,423.026 69.576,414.25C69.576,411.603 70.233,408.996 71.488,406.665C71.488,406.665 241.906,90.169 241.906,90.169C247.953,78.946 264.047,78.946 270.094,90.169C270.094,90.169 440.512,406.665 440.512,406.665C441.767,408.996 442.424,411.603 442.424,414.25C442.424,423.026 435.203,430.248 426.427,430.25L85.573,430.25ZM256,397.25C245.028,397.25 236,388.222 236,377.25C236,366.278 245.028,357.25 256,357.25C266.972,357.25 276,366.278 276,377.25C276,388.222 266.972,397.25 256,397.25ZM234.271,195.976C234.273,196.031 234.275,196.087 234.278,196.142L240.018,318.142C240.419,326.677 247.456,333.39 256.001,333.39C264.545,333.39 271.581,326.676 271.982,318.141L277.712,196.191C277.713,196.182 277.713,196.174 277.714,196.165C277.728,195.837 277.736,195.508 277.736,195.18C277.736,183.254 267.922,173.44 255.996,173.44L255.783,173.441C243.938,173.557 234.256,183.334 234.256,195.18C234.256,195.445 234.261,195.711 234.271,195.976Z"
    />
  </g>
</svg>
